<?xml version="1.0" encoding="UTF-8" standalone="no"?>
<!-- Created with Inkscape (http://www.inkscape.org/) -->

<svg
   width="16"
   height="16"
   viewBox="0 0 4.2333333 4.2333333"
   version="1.1"
   id="svg5"
   sodipodi:docname="volume16.svg"
   inkscape:version="1.1 (c68e22c387, 2021-05-23)"
   xmlns:inkscape="http://www.inkscape.org/namespaces/inkscape"
   xmlns:sodipodi="http://sodipodi.sourceforge.net/DTD/sodipodi-0.dtd"
   xmlns="http://www.w3.org/2000/svg"
   xmlns:svg="http://www.w3.org/2000/svg"
   xmlns:rdf="http://www.w3.org/1999/02/22-rdf-syntax-ns#"
   xmlns:cc="http://creativecommons.org/ns#">
  <sodipodi:namedview
     id="namedview8462"
     pagecolor="#ffffff"
     bordercolor="#666666"
     borderopacity="1.0"
     inkscape:pageshadow="2"
     inkscape:pageopacity="0.0"
     inkscape:pagecheckerboard="true"
     showgrid="true"
     inkscape:zoom="54.5625"
     inkscape:cx="7.9908362"
     inkscape:cy="7.9725086"
     inkscape:window-width="2560"
     inkscape:window-height="1365"
     inkscape:window-x="0"
     inkscape:window-y="0"
     inkscape:window-maximized="1"
     inkscape:current-layer="svg5">
    <inkscape:grid
       type="xygrid"
       id="grid8464" />
  </sodipodi:namedview>
  <defs
     id="defs2" />
  <g
     id="layer1"
     transform="matrix(1.0157931,0,0,1.015459,0.06331648,0.06508349)"
     style="display:none">
    <path
       style="display:inline;fill:none;stroke:#000000;stroke-width:0.264583px;stroke-linecap:butt;stroke-linejoin:miter;stroke-opacity:1"
       d="M 0.26458333,3.96875 3.96875,0.26458333 V 3.96875 Z"
       id="path46" />
    <path
       style="display:none;fill:none;stroke:#000000;stroke-width:0.264583px;stroke-linecap:butt;stroke-linejoin:miter;stroke-opacity:1"
       d="M 3.4395833,3.4395833 V 1.5875 l -0.79375,0.79375 v 1.0583333 z"
       id="path48" />
    <path
       style="display:inline;fill:#000000;stroke-width:0.0183276"
       d="m 2.2634593,14.474217 c 0,-0.01797 12.1928027,-12.2107577 12.2107777,-12.2107577 0.0076,0 0.01374,2.7505155 0.01374,6.1122566 V 14.487973 H 8.3757159 c -3.3617411,0 -6.1122566,-0.0062 -6.1122566,-0.01376 z M 13.516609,9.1546392 c 0,-2.3990836 -0.0062,-4.3619702 -0.01378,-4.3619702 -0.0076,0 -0.914794,0.901045 -2.016036,2.0023221 L 9.4845361,8.7973134 v 2.3596476 2.359648 h 2.0160369 2.016036 z"
       id="path87"
       transform="scale(0.26458333)" />
    <path
       style="display:inline;fill:#000000;stroke-width:0.00542042"
       d="m 0.26458333,3.96875 c 0,-0.00528 3.62848617,-3.58901684 3.63383537,-3.58901684 0.00226,0 0.00409,0.80843854 0.00409,1.79652984 V 3.9727931 H 2.0835448 c -1.0004288,0 -1.81896147,-0.00182 -1.81896147,-0.00405 z M 3.6134358,2.4052062 c 0,-0.7051447 -0.00184,-1.2820814 -0.0041,-1.2820814 -0.00226,0 -0.2722358,0.2648375 -0.5999571,0.5885276 L 2.4135214,2.3001801 v 0.6935536 0.6935537 h 0.5999573 0.5999571 z"
       id="path163" />
  </g>
  <metadata
     id="metadata11">
    <rdf:RDF>
      <cc:Work
         rdf:about="">
        <cc:license
           rdf:resource="http://artlibre.org/licence/lal" />
      </cc:Work>
      <cc:License
         rdf:about="http://artlibre.org/licence/lal">
        <cc:permits
           rdf:resource="http://creativecommons.org/ns#Reproduction" />
        <cc:permits
           rdf:resource="http://creativecommons.org/ns#Distribution" />
        <cc:permits
           rdf:resource="http://creativecommons.org/ns#DerivativeWorks" />
        <cc:requires
           rdf:resource="http://creativecommons.org/ns#ShareAlike" />
        <cc:requires
           rdf:resource="http://creativecommons.org/ns#Notice" />
        <cc:requires
           rdf:resource="http://creativecommons.org/ns#Attribution" />
      </cc:License>
    </rdf:RDF>
  </metadata>
  <path
     style="display:inline;fill:#f2f2f2;stroke-width:0.0183276"
     d="m 0.08247423,15.958755 c 0,-0.01797 15.85832177,-15.87628077 15.87629677,-15.87628077 0.0076,0 0.01374,3.57525777 0.01374,7.94501717 V 15.972509 H 8.0274914 c -4.3697594,0 -7.94501717,-0.0062 -7.94501717,-0.01375 z M 13.973511,9.5715922 c -7.07e-4,-2.421764 -0.0075,-4.4190781 -0.01511,-4.4384759 -0.01159,-0.029572 -0.342923,0.2927619 -2.051404,1.9956668 L 9.8694158,9.1597185 V 11.567259 13.9748 H 11.922108 13.9748 L 13.9735,9.5715922 Z"
     id="path176"
     transform="scale(0.26458333)" />
</svg>
